<mxfile host="app.diagrams.net" agent="Mozilla/5.0 (Windows NT 10.0; Win64; x64) AppleWebKit/537.36 (KHTML, like Gecko) Chrome/133.0.0.0 Safari/537.36" version="26.0.16">
  <diagram name="Page-1" id="fr82chmS0VjZSK2y9uVk">
    <mxGraphModel dx="1615" dy="885" grid="1" gridSize="10" guides="1" tooltips="1" connect="1" arrows="1" fold="1" page="1" pageScale="1" pageWidth="1169" pageHeight="827" math="0" shadow="0">
      <root>
        <mxCell id="0" />
        <mxCell id="1" parent="0" />
        <mxCell id="60MkNcsTgpI80KWqYa-A-1" value="&lt;font style=&quot;font-size: 24px;&quot;&gt;CVO App&lt;/font&gt;" style="rounded=0;whiteSpace=wrap;html=1;" vertex="1" parent="1">
          <mxGeometry x="480" y="40" width="210" height="60" as="geometry" />
        </mxCell>
        <mxCell id="60MkNcsTgpI80KWqYa-A-2" value="&lt;span style=&quot;font-size: 24px;&quot;&gt;Admin&lt;/span&gt;" style="rounded=0;whiteSpace=wrap;html=1;" vertex="1" parent="1">
          <mxGeometry x="480" y="140" width="210" height="60" as="geometry" />
        </mxCell>
        <mxCell id="60MkNcsTgpI80KWqYa-A-3" value="" style="endArrow=none;html=1;rounded=0;entryX=0.5;entryY=1;entryDx=0;entryDy=0;" edge="1" parent="1" source="60MkNcsTgpI80KWqYa-A-2" target="60MkNcsTgpI80KWqYa-A-1">
          <mxGeometry width="50" height="50" relative="1" as="geometry">
            <mxPoint x="480" y="360" as="sourcePoint" />
            <mxPoint x="530" y="310" as="targetPoint" />
          </mxGeometry>
        </mxCell>
        <mxCell id="60MkNcsTgpI80KWqYa-A-5" value="" style="endArrow=none;html=1;rounded=0;entryX=0.5;entryY=1;entryDx=0;entryDy=0;exitX=0.404;exitY=-0.01;exitDx=0;exitDy=0;exitPerimeter=0;" edge="1" parent="1" source="60MkNcsTgpI80KWqYa-A-6" target="60MkNcsTgpI80KWqYa-A-2">
          <mxGeometry width="50" height="50" relative="1" as="geometry">
            <mxPoint x="240" y="240" as="sourcePoint" />
            <mxPoint x="530" y="310" as="targetPoint" />
            <Array as="points">
              <mxPoint x="235" y="240" />
              <mxPoint x="585" y="240" />
            </Array>
          </mxGeometry>
        </mxCell>
        <mxCell id="60MkNcsTgpI80KWqYa-A-6" value="&lt;span style=&quot;font-size: 24px;&quot;&gt;User Account Management&lt;/span&gt;" style="rounded=0;whiteSpace=wrap;html=1;" vertex="1" parent="1">
          <mxGeometry x="150" y="260" width="210" height="60" as="geometry" />
        </mxCell>
        <mxCell id="60MkNcsTgpI80KWqYa-A-11" value="&lt;span style=&quot;font-size: 24px;&quot;&gt;Login&lt;/span&gt;" style="rounded=0;whiteSpace=wrap;html=1;" vertex="1" parent="1">
          <mxGeometry x="230" y="353" width="210" height="60" as="geometry" />
        </mxCell>
        <mxCell id="60MkNcsTgpI80KWqYa-A-12" value="&lt;span style=&quot;font-size: 24px;&quot;&gt;Logout&lt;/span&gt;" style="rounded=0;whiteSpace=wrap;html=1;" vertex="1" parent="1">
          <mxGeometry x="230" y="440" width="210" height="60" as="geometry" />
        </mxCell>
        <mxCell id="60MkNcsTgpI80KWqYa-A-13" value="&lt;span style=&quot;font-size: 24px;&quot;&gt;Register&lt;/span&gt;" style="rounded=0;whiteSpace=wrap;html=1;" vertex="1" parent="1">
          <mxGeometry x="230" y="530" width="210" height="60" as="geometry" />
        </mxCell>
        <mxCell id="60MkNcsTgpI80KWqYa-A-14" value="&lt;span style=&quot;font-size: 24px;&quot;&gt;Password Reset&lt;/span&gt;" style="rounded=0;whiteSpace=wrap;html=1;" vertex="1" parent="1">
          <mxGeometry x="230" y="620" width="210" height="60" as="geometry" />
        </mxCell>
        <mxCell id="60MkNcsTgpI80KWqYa-A-15" value="&lt;span style=&quot;font-size: 24px;&quot;&gt;Update Profile&lt;/span&gt;" style="rounded=0;whiteSpace=wrap;html=1;" vertex="1" parent="1">
          <mxGeometry x="230" y="710" width="210" height="60" as="geometry" />
        </mxCell>
        <mxCell id="60MkNcsTgpI80KWqYa-A-16" value="" style="endArrow=none;html=1;rounded=0;exitX=0.25;exitY=1;exitDx=0;exitDy=0;entryX=0;entryY=0.5;entryDx=0;entryDy=0;" edge="1" parent="1" source="60MkNcsTgpI80KWqYa-A-6" target="60MkNcsTgpI80KWqYa-A-11">
          <mxGeometry width="50" height="50" relative="1" as="geometry">
            <mxPoint x="320" y="570" as="sourcePoint" />
            <mxPoint x="370" y="520" as="targetPoint" />
            <Array as="points">
              <mxPoint x="203" y="383" />
            </Array>
          </mxGeometry>
        </mxCell>
        <mxCell id="60MkNcsTgpI80KWqYa-A-17" value="" style="endArrow=none;html=1;rounded=0;exitX=0;exitY=0.5;exitDx=0;exitDy=0;entryX=0.25;entryY=1;entryDx=0;entryDy=0;" edge="1" parent="1" source="60MkNcsTgpI80KWqYa-A-12" target="60MkNcsTgpI80KWqYa-A-6">
          <mxGeometry width="50" height="50" relative="1" as="geometry">
            <mxPoint x="320" y="570" as="sourcePoint" />
            <mxPoint x="370" y="520" as="targetPoint" />
            <Array as="points">
              <mxPoint x="203" y="470" />
            </Array>
          </mxGeometry>
        </mxCell>
        <mxCell id="60MkNcsTgpI80KWqYa-A-18" value="" style="endArrow=none;html=1;rounded=0;exitX=0.25;exitY=1;exitDx=0;exitDy=0;entryX=0;entryY=0.5;entryDx=0;entryDy=0;" edge="1" parent="1" source="60MkNcsTgpI80KWqYa-A-6" target="60MkNcsTgpI80KWqYa-A-13">
          <mxGeometry width="50" height="50" relative="1" as="geometry">
            <mxPoint x="280" y="510" as="sourcePoint" />
            <mxPoint x="330" y="460" as="targetPoint" />
            <Array as="points">
              <mxPoint x="203" y="560" />
            </Array>
          </mxGeometry>
        </mxCell>
        <mxCell id="60MkNcsTgpI80KWqYa-A-19" value="" style="endArrow=none;html=1;rounded=0;exitX=0.25;exitY=1;exitDx=0;exitDy=0;entryX=0;entryY=0.5;entryDx=0;entryDy=0;" edge="1" parent="1" source="60MkNcsTgpI80KWqYa-A-6" target="60MkNcsTgpI80KWqYa-A-14">
          <mxGeometry width="50" height="50" relative="1" as="geometry">
            <mxPoint x="380" y="490" as="sourcePoint" />
            <mxPoint x="430" y="440" as="targetPoint" />
            <Array as="points">
              <mxPoint x="203" y="650" />
            </Array>
          </mxGeometry>
        </mxCell>
        <mxCell id="60MkNcsTgpI80KWqYa-A-20" value="" style="endArrow=none;html=1;rounded=0;exitX=0.25;exitY=1;exitDx=0;exitDy=0;entryX=0;entryY=0.5;entryDx=0;entryDy=0;" edge="1" parent="1" source="60MkNcsTgpI80KWqYa-A-6" target="60MkNcsTgpI80KWqYa-A-15">
          <mxGeometry width="50" height="50" relative="1" as="geometry">
            <mxPoint x="270" y="500" as="sourcePoint" />
            <mxPoint x="320" y="450" as="targetPoint" />
            <Array as="points">
              <mxPoint x="203" y="740" />
            </Array>
          </mxGeometry>
        </mxCell>
        <mxCell id="60MkNcsTgpI80KWqYa-A-29" value="&lt;span style=&quot;font-size: 24px;&quot;&gt;Pet Management&lt;/span&gt;" style="rounded=0;whiteSpace=wrap;html=1;" vertex="1" parent="1">
          <mxGeometry x="479" y="260" width="210" height="60" as="geometry" />
        </mxCell>
        <mxCell id="60MkNcsTgpI80KWqYa-A-39" value="&lt;span style=&quot;font-size: 24px;&quot;&gt;Information Management&lt;/span&gt;" style="rounded=0;whiteSpace=wrap;html=1;" vertex="1" parent="1">
          <mxGeometry x="820" y="260" width="210" height="60" as="geometry" />
        </mxCell>
        <mxCell id="60MkNcsTgpI80KWqYa-A-44" value="" style="endArrow=none;html=1;rounded=0;exitX=0.5;exitY=1;exitDx=0;exitDy=0;entryX=0.5;entryY=0;entryDx=0;entryDy=0;" edge="1" parent="1" source="60MkNcsTgpI80KWqYa-A-2" target="60MkNcsTgpI80KWqYa-A-39">
          <mxGeometry width="50" height="50" relative="1" as="geometry">
            <mxPoint x="770" y="370" as="sourcePoint" />
            <mxPoint x="820" y="320" as="targetPoint" />
            <Array as="points">
              <mxPoint x="585" y="240" />
              <mxPoint x="925" y="240" />
            </Array>
          </mxGeometry>
        </mxCell>
        <mxCell id="60MkNcsTgpI80KWqYa-A-52" value="" style="endArrow=none;html=1;rounded=0;entryX=0.5;entryY=1;entryDx=0;entryDy=0;" edge="1" parent="1" source="60MkNcsTgpI80KWqYa-A-29" target="60MkNcsTgpI80KWqYa-A-2">
          <mxGeometry width="50" height="50" relative="1" as="geometry">
            <mxPoint x="700" y="300" as="sourcePoint" />
            <mxPoint x="750" y="250" as="targetPoint" />
          </mxGeometry>
        </mxCell>
        <mxCell id="60MkNcsTgpI80KWqYa-A-53" value="&lt;span style=&quot;font-size: 24px;&quot;&gt;Update Pet Status&lt;/span&gt;" style="rounded=0;whiteSpace=wrap;html=1;" vertex="1" parent="1">
          <mxGeometry x="580" y="353" width="210" height="60" as="geometry" />
        </mxCell>
        <mxCell id="60MkNcsTgpI80KWqYa-A-54" value="&lt;span style=&quot;font-size: 24px;&quot;&gt;View Pets&lt;/span&gt;" style="rounded=0;whiteSpace=wrap;html=1;" vertex="1" parent="1">
          <mxGeometry x="570" y="440" width="210" height="60" as="geometry" />
        </mxCell>
        <mxCell id="60MkNcsTgpI80KWqYa-A-57" value="" style="endArrow=none;html=1;rounded=0;entryX=0.25;entryY=1;entryDx=0;entryDy=0;exitX=0;exitY=0.5;exitDx=0;exitDy=0;" edge="1" parent="1" source="60MkNcsTgpI80KWqYa-A-53" target="60MkNcsTgpI80KWqYa-A-29">
          <mxGeometry width="50" height="50" relative="1" as="geometry">
            <mxPoint x="730" y="480" as="sourcePoint" />
            <mxPoint x="850" y="400" as="targetPoint" />
            <Array as="points">
              <mxPoint x="533" y="383" />
            </Array>
          </mxGeometry>
        </mxCell>
        <mxCell id="60MkNcsTgpI80KWqYa-A-58" value="" style="endArrow=none;html=1;rounded=0;entryX=0.25;entryY=1;entryDx=0;entryDy=0;exitX=0;exitY=0.5;exitDx=0;exitDy=0;" edge="1" parent="1" source="60MkNcsTgpI80KWqYa-A-54" target="60MkNcsTgpI80KWqYa-A-29">
          <mxGeometry width="50" height="50" relative="1" as="geometry">
            <mxPoint x="730" y="480" as="sourcePoint" />
            <mxPoint x="780" y="430" as="targetPoint" />
            <Array as="points">
              <mxPoint x="533" y="470" />
            </Array>
          </mxGeometry>
        </mxCell>
        <mxCell id="60MkNcsTgpI80KWqYa-A-60" value="&lt;span style=&quot;font-size: 24px;&quot;&gt;View Feedbacks&lt;/span&gt;" style="rounded=0;whiteSpace=wrap;html=1;" vertex="1" parent="1">
          <mxGeometry x="900" y="340" width="210" height="60" as="geometry" />
        </mxCell>
        <mxCell id="60MkNcsTgpI80KWqYa-A-61" value="" style="endArrow=none;html=1;rounded=0;entryX=0.25;entryY=1;entryDx=0;entryDy=0;exitX=0;exitY=0.5;exitDx=0;exitDy=0;" edge="1" parent="1" source="60MkNcsTgpI80KWqYa-A-60" target="60MkNcsTgpI80KWqYa-A-39">
          <mxGeometry width="50" height="50" relative="1" as="geometry">
            <mxPoint x="590" y="370" as="sourcePoint" />
            <mxPoint x="640" y="320" as="targetPoint" />
            <Array as="points">
              <mxPoint x="873" y="370" />
            </Array>
          </mxGeometry>
        </mxCell>
      </root>
    </mxGraphModel>
  </diagram>
</mxfile>
